  0
SECTION
  2
HEADER
  9
$ACADVER
  1
AC1014
  9
$HANDSEED
  5
FFFF
  9
$INSUNITS
 70
     4
  9
$MEASUREMENT
 70
     1
  0
ENDSEC
  0
SECTION
  2
TABLES
  0
TABLE
  2
VPORT
  5
8
330
0
100
AcDbSymbolTable
 70
     4
  0
VPORT
  5
2E
330
8
100
AcDbSymbolTableRecord
100
AcDbViewportTableRecord
  2
*ACTIVE
 70
     0
 10
0.0
 20
0.0
 11
1.0
 21
1.0
 12
210.0
 22
148.5
 13
0.0
 23
0.0
 14
10.0
 24
10.0
 15
10.0
 25
10.0
 16
0.0
 26
0.0
 36
1.0
 17
0.0
 27
0.0
 37
0.0
 40
341.0
 41
1.24
 42
50.0
 43
0.0
 44
0.0
 50
0.0
 51
0.0
 71
     0
 72
   100
 73
     1
 74
     3
 75
     0
 76
     0
 77
     0
 78
     0
  0
ENDTAB
  0
TABLE
  2
LTYPE
  5
5
330
0
100
AcDbSymbolTable
 70
     1
  0
LTYPE
  5
14
330
5
100
AcDbSymbolTableRecord
100
AcDbLinetypeTableRecord
  2
BYBLOCK
 70
     0
  3

 72
    65
 73
     0
 40
0.0
  0
LTYPE
  5
15
330
5
100
AcDbSymbolTableRecord
100
AcDbLinetypeTableRecord
  2
BYLAYER
 70
     0
  3

 72
    65
 73
     0
 40
0.0
  0
LTYPE
  5
16
330
5
100
AcDbSymbolTableRecord
100
AcDbLinetypeTableRecord
  2
CONTINUOUS
 70
     0
  3
Solid line
 72
    65
 73
     0
 40
0.0
  0
ENDTAB
  0
TABLE
  2
LAYER
  5
2
100
AcDbSymbolTable
 70
2
  0
LAYER
  5
50
100
AcDbSymbolTableRecord
100
AcDbLayerTableRecord
  2
0
 70
0
  6
CONTINUOUS
  0
LAYER
  5
51
100
AcDbSymbolTableRecord
100
AcDbLayerTableRecord
  2
Laag_1
 70
0
  6
CONTINUOUS
  0
ENDTAB
  0
TABLE
  2
STYLE
  5
3
330
0
100
AcDbSymbolTable
 70
     1
  0
STYLE
  5
11
330
3
100
AcDbSymbolTableRecord
100
AcDbTextStyleTableRecord
  2
STANDARD
 70
     0
 40
0.0
 41
1.0
 50
0.0
 71
     0
 42
2.5
  3
txt
  4

  0
ENDTAB
  0
TABLE
  2
VIEW
  5
6
330
0
100
AcDbSymbolTable
 70
     0
  0
ENDTAB
  0
TABLE
  2
UCS
  5
7
330
0
100
AcDbSymbolTable
 70
     0
  0
ENDTAB
  0
TABLE
  2
APPID
  5
9
330
0
100
AcDbSymbolTable
 70
     2
  0
APPID
  5
12
330
9
100
AcDbSymbolTableRecord
100
AcDbRegAppTableRecord
  2
ACAD
 70
     0
  0
ENDTAB
  0
TABLE
  2
DIMSTYLE
  5
A
330
0
100
AcDbSymbolTable
 70
     1
  0
DIMSTYLE
105
27
330
A
100
AcDbSymbolTableRecord
100
AcDbDimStyleTableRecord
  2
ISO-25
 70
     0
  3

  4

  5

  6

  7

 40
1.0
 41
2.5
 42
0.625
 43
3.75
 44
1.25
 45
0.0
 46
0.0
 47
0.0
 48
0.0
140
2.5
141
2.5
142
0.0
143
0.03937007874016
144
1.0
145
0.0
146
1.0
147
0.625
 71
     0
 72
     0
 73
     0
 74
     0
 75
     0
 76
     0
 77
     1
 78
     8
170
     0
171
     3
172
     1
173
     0
174
     0
175
     0
176
     0
177
     0
178
     0
270
     2
271
     2
272
     2
273
     2
274
     3
340
11
275
     0
280
     0
281
     0
282
     0
283
     0
284
     8
285
     0
286
     0
287
     3
288
     0
  0
ENDTAB
  0
TABLE
  2
BLOCK_RECORD
  5
1
330
0
100
AcDbSymbolTable
 70
     1
  0
BLOCK_RECORD
  5
1F
330
1
100
AcDbSymbolTableRecord
100
AcDbBlockTableRecord
  2
*MODEL_SPACE
  0
BLOCK_RECORD
  5
1B
330
1
100
AcDbSymbolTableRecord
100
AcDbBlockTableRecord
  2
*PAPER_SPACE
  0
ENDTAB
  0
ENDSEC
  0
SECTION
  2
BLOCKS
  0
BLOCK
  5
20
330
1F
100
AcDbEntity
  8
0
100
AcDbBlockBegin
  2
*MODEL_SPACE
 70
     0
 10
0.0
 20
0.0
 30
0.0
  3
*MODEL_SPACE
  1

  0
ENDBLK
  5
21
330
1F
100
AcDbEntity
  8
0
100
AcDbBlockEnd
  0
BLOCK
  5
1C
330
1B
100
AcDbEntity
 67
     1
  8
0
100
AcDbBlockBegin
  2
*PAPER_SPACE
  1

  0
ENDBLK
  5
1D
330
1B
100
AcDbEntity
 67
     1
  8
0
100
AcDbBlockEnd
  0
ENDSEC
  0
SECTION
  2
ENTITIES
  0
SPLINE
  5
100
100
AcDbEntity
  8
Laag_1
 62
7
100
AcDbSpline
 70
8
 71
3
 72
8
 73
4
 74
0
 40
0
 40
0
 40
0
 40
0
 40
1
 40
1
 40
1
 40
1
 10
8.400004
 20
287.488953
 30
0.0
 10
9.062689
 20
287.488912
 30
0.0
 10
9.599890
 20
286.951710
 30
0.0
 10
9.599931
 20
286.289026
 30
0.0
  0
SPLINE
  5
101
100
AcDbEntity
  8
Laag_1
 62
7
100
AcDbSpline
 70
8
 71
3
 72
8
 73
4
 74
0
 40
0
 40
0
 40
0
 40
0
 40
1
 40
1
 40
1
 40
1
 10
9.599931
 20
286.289026
 30
0.0
 10
9.599890
 20
285.626341
 30
0.0
 10
9.062689
 20
285.089139
 30
0.0
 10
8.400004
 20
285.089099
 30
0.0
  0
SPLINE
  5
102
100
AcDbEntity
  8
Laag_1
 62
7
100
AcDbSpline
 70
8
 71
3
 72
8
 73
4
 74
0
 40
0
 40
0
 40
0
 40
0
 40
1
 40
1
 40
1
 40
1
 10
8.400004
 20
285.089099
 30
0.0
 10
7.737319
 20
285.089139
 30
0.0
 10
7.200118
 20
285.626341
 30
0.0
 10
7.200077
 20
286.289026
 30
0.0
  0
SPLINE
  5
103
100
AcDbEntity
  8
Laag_1
 62
7
100
AcDbSpline
 70
8
 71
3
 72
8
 73
4
 74
0
 40
0
 40
0
 40
0
 40
0
 40
1
 40
1
 40
1
 40
1
 10
7.200077
 20
286.289026
 30
0.0
 10
7.200118
 20
286.951710
 30
0.0
 10
7.737320
 20
287.488912
 30
0.0
 10
8.400004
 20
287.488953
 30
0.0
  0
LWPOLYLINE
  5
104
100
AcDbEntity
  8
Laag_1
 62
7
100
AcDbPolyline
 90
5
 70
1
 10
5.200199
 20
291.489225
 30
0.0
 10
5.200199
 20
249.489205
 30
0.0
 10
170.200460
 20
249.489205
 30
0.0
 10
170.200460
 20
291.489225
 30
0.0
 10
5.200199
 20
291.489225
 30
0.0
  0
SPLINE
  5
105
100
AcDbEntity
  8
Laag_1
 62
7
100
AcDbSpline
 70
8
 71
3
 72
8
 73
4
 74
0
 40
0
 40
0
 40
0
 40
0
 40
1
 40
1
 40
1
 40
1
 10
166.814620
 20
287.488953
 30
0.0
 10
167.477306
 20
287.488914
 30
0.0
 10
168.014509
 20
286.951712
 30
0.0
 10
168.014550
 20
286.289026
 30
0.0
  0
SPLINE
  5
106
100
AcDbEntity
  8
Laag_1
 62
7
100
AcDbSpline
 70
8
 71
3
 72
8
 73
4
 74
0
 40
0
 40
0
 40
0
 40
0
 40
1
 40
1
 40
1
 40
1
 10
168.014550
 20
286.289026
 30
0.0
 10
168.014510
 20
285.626340
 30
0.0
 10
167.477306
 20
285.089138
 30
0.0
 10
166.814620
 20
285.089099
 30
0.0
  0
SPLINE
  5
107
100
AcDbEntity
  8
Laag_1
 62
7
100
AcDbSpline
 70
8
 71
3
 72
8
 73
4
 74
0
 40
0
 40
0
 40
0
 40
0
 40
1
 40
1
 40
1
 40
1
 10
166.814620
 20
285.089099
 30
0.0
 10
166.151938
 20
285.089143
 30
0.0
 10
165.614740
 20
285.626344
 30
0.0
 10
165.614700
 20
286.289026
 30
0.0
  0
SPLINE
  5
108
100
AcDbEntity
  8
Laag_1
 62
7
100
AcDbSpline
 70
8
 71
3
 72
8
 73
4
 74
0
 40
0
 40
0
 40
0
 40
0
 40
1
 40
1
 40
1
 40
1
 10
165.614700
 20
286.289026
 30
0.0
 10
165.614741
 20
286.951708
 30
0.0
 10
166.151938
 20
287.488908
 30
0.0
 10
166.814620
 20
287.488953
 30
0.0
  0
LWPOLYLINE
  5
109
100
AcDbEntity
  8
Laag_1
 62
7
100
AcDbPolyline
 90
1
 70
1
 10
8.400004
 20
287.488953
 30
0.0
  0
SPLINE
  5
10a
100
AcDbEntity
  8
Laag_1
 62
7
100
AcDbSpline
 70
8
 71
3
 72
8
 73
4
 74
0
 40
0
 40
0
 40
0
 40
0
 40
1
 40
1
 40
1
 40
1
 10
8.400004
 20
255.958061
 30
0.0
 10
9.062689
 20
255.958021
 30
0.0
 10
9.599890
 20
255.420819
 30
0.0
 10
9.599931
 20
254.758134
 30
0.0
  0
SPLINE
  5
10b
100
AcDbEntity
  8
Laag_1
 62
7
100
AcDbSpline
 70
8
 71
3
 72
8
 73
4
 74
0
 40
0
 40
0
 40
0
 40
0
 40
1
 40
1
 40
1
 40
1
 10
9.599931
 20
254.758134
 30
0.0
 10
9.599890
 20
254.095449
 30
0.0
 10
9.062689
 20
253.558247
 30
0.0
 10
8.400004
 20
253.558207
 30
0.0
  0
SPLINE
  5
10c
100
AcDbEntity
  8
Laag_1
 62
7
100
AcDbSpline
 70
8
 71
3
 72
8
 73
4
 74
0
 40
0
 40
0
 40
0
 40
0
 40
1
 40
1
 40
1
 40
1
 10
8.400004
 20
253.558207
 30
0.0
 10
7.737319
 20
253.558247
 30
0.0
 10
7.200118
 20
254.095449
 30
0.0
 10
7.200077
 20
254.758134
 30
0.0
  0
SPLINE
  5
10d
100
AcDbEntity
  8
Laag_1
 62
7
100
AcDbSpline
 70
8
 71
3
 72
8
 73
4
 74
0
 40
0
 40
0
 40
0
 40
0
 40
1
 40
1
 40
1
 40
1
 10
7.200077
 20
254.758134
 30
0.0
 10
7.200118
 20
255.420819
 30
0.0
 10
7.737319
 20
255.958021
 30
0.0
 10
8.400004
 20
255.958061
 30
0.0
  0
LWPOLYLINE
  5
10e
100
AcDbEntity
  8
Laag_1
 62
7
100
AcDbPolyline
 90
1
 70
1
 10
166.814620
 20
287.488953
 30
0.0
  0
SPLINE
  5
10f
100
AcDbEntity
  8
Laag_1
 62
7
100
AcDbSpline
 70
8
 71
3
 72
8
 73
4
 74
0
 40
0
 40
0
 40
0
 40
0
 40
1
 40
1
 40
1
 40
1
 10
166.814620
 20
255.958061
 30
0.0
 10
167.477306
 20
255.958022
 30
0.0
 10
168.014510
 20
255.420820
 30
0.0
 10
168.014550
 20
254.758134
 30
0.0
  0
SPLINE
  5
110
100
AcDbEntity
  8
Laag_1
 62
7
100
AcDbSpline
 70
8
 71
3
 72
8
 73
4
 74
0
 40
0
 40
0
 40
0
 40
0
 40
1
 40
1
 40
1
 40
1
 10
168.014550
 20
254.758134
 30
0.0
 10
168.014510
 20
254.095448
 30
0.0
 10
167.477306
 20
253.558246
 30
0.0
 10
166.814620
 20
253.558207
 30
0.0
  0
SPLINE
  5
111
100
AcDbEntity
  8
Laag_1
 62
7
100
AcDbSpline
 70
8
 71
3
 72
8
 73
4
 74
0
 40
0
 40
0
 40
0
 40
0
 40
1
 40
1
 40
1
 40
1
 10
166.814620
 20
253.558207
 30
0.0
 10
166.151938
 20
253.558251
 30
0.0
 10
165.614740
 20
254.095452
 30
0.0
 10
165.614700
 20
254.758134
 30
0.0
  0
SPLINE
  5
112
100
AcDbEntity
  8
Laag_1
 62
7
100
AcDbSpline
 70
8
 71
3
 72
8
 73
4
 74
0
 40
0
 40
0
 40
0
 40
0
 40
1
 40
1
 40
1
 40
1
 10
165.614700
 20
254.758134
 30
0.0
 10
165.614740
 20
255.420816
 30
0.0
 10
166.151938
 20
255.958017
 30
0.0
 10
166.814620
 20
255.958061
 30
0.0
  0
LWPOLYLINE
  5
113
100
AcDbEntity
  8
Laag_1
 62
7
100
AcDbPolyline
 90
1
 70
1
 10
8.400004
 20
255.958061
 30
0.0
  0
LWPOLYLINE
  5
114
100
AcDbEntity
  8
Laag_1
 62
7
100
AcDbPolyline
 90
1
 70
1
 10
166.814620
 20
255.958061
 30
0.0
  0
SPLINE
  5
115
100
AcDbEntity
  8
Laag_1
 62
7
100
AcDbSpline
 70
8
 71
3
 72
8
 73
4
 74
0
 40
0
 40
0
 40
0
 40
0
 40
1
 40
1
 40
1
 40
1
 10
8.400004
 20
237.966394
 30
0.0
 10
8.718328
 20
237.966375
 30
0.0
 10
9.023601
 20
237.839877
 30
0.0
 10
9.248642
 20
237.614740
 30
0.0
  0
SPLINE
  5
116
100
AcDbEntity
  8
Laag_1
 62
7
100
AcDbSpline
 70
8
 71
3
 72
8
 73
4
 74
0
 40
0
 40
0
 40
0
 40
0
 40
1
 40
1
 40
1
 40
1
 10
9.248642
 20
237.614740
 30
0.0
 10
9.473682
 20
237.389602
 30
0.0
 10
9.600048
 20
237.084275
 30
0.0
 10
9.599931
 20
236.765951
 30
0.0
  0
SPLINE
  5
117
100
AcDbEntity
  8
Laag_1
 62
7
100
AcDbSpline
 70
8
 71
3
 72
8
 73
4
 74
0
 40
0
 40
0
 40
0
 40
0
 40
1
 40
1
 40
1
 40
1
 10
9.599931
 20
236.765951
 30
0.0
 10
9.599890
 20
236.103266
 30
0.0
 10
9.062689
 20
235.566064
 30
0.0
 10
8.400004
 20
235.566024
 30
0.0
  0
SPLINE
  5
118
100
AcDbEntity
  8
Laag_1
 62
7
100
AcDbSpline
 70
8
 71
3
 72
8
 73
4
 74
0
 40
0
 40
0
 40
0
 40
0
 40
1
 40
1
 40
1
 40
1
 10
8.400004
 20
235.566024
 30
0.0
 10
7.737319
 20
235.566064
 30
0.0
 10
7.200118
 20
236.103266
 30
0.0
 10
7.200077
 20
236.765951
 30
0.0
  0
SPLINE
  5
119
100
AcDbEntity
  8
Laag_1
 62
7
100
AcDbSpline
 70
8
 71
3
 72
8
 73
4
 74
0
 40
0
 40
0
 40
0
 40
0
 40
1
 40
1
 40
1
 40
1
 10
7.200077
 20
236.765951
 30
0.0
 10
7.199960
 20
237.084275
 30
0.0
 10
7.326326
 20
237.389602
 30
0.0
 10
7.551367
 20
237.614740
 30
0.0
  0
SPLINE
  5
11a
100
AcDbEntity
  8
Laag_1
 62
7
100
AcDbSpline
 70
8
 71
3
 72
8
 73
4
 74
0
 40
0
 40
0
 40
0
 40
0
 40
1
 40
1
 40
1
 40
1
 10
7.551367
 20
237.614740
 30
0.0
 10
7.776407
 20
237.839877
 30
0.0
 10
8.081680
 20
237.966375
 30
0.0
 10
8.400004
 20
237.966394
 30
0.0
  0
LWPOLYLINE
  5
11b
100
AcDbEntity
  8
Laag_1
 62
7
100
AcDbPolyline
 90
5
 70
1
 10
5.200199
 20
241.995605
 30
0.0
 10
5.200199
 20
199.995585
 30
0.0
 10
170.200460
 20
199.995585
 30
0.0
 10
170.200460
 20
241.995605
 30
0.0
 10
5.200199
 20
241.995605
 30
0.0
  0
SPLINE
  5
11c
100
AcDbEntity
  8
Laag_1
 62
7
100
AcDbSpline
 70
8
 71
3
 72
8
 73
4
 74
0
 40
0
 40
0
 40
0
 40
0
 40
1
 40
1
 40
1
 40
1
 10
166.814620
 20
237.966394
 30
0.0
 10
167.132944
 20
237.966375
 30
0.0
 10
167.438218
 20
237.839878
 30
0.0
 10
167.663260
 20
237.614741
 30
0.0
  0
SPLINE
  5
11d
100
AcDbEntity
  8
Laag_1
 62
7
100
AcDbSpline
 70
8
 71
3
 72
8
 73
4
 74
0
 40
0
 40
0
 40
0
 40
0
 40
1
 40
1
 40
1
 40
1
 10
167.663260
 20
237.614741
 30
0.0
 10
167.888301
 20
237.389603
 30
0.0
 10
168.014668
 20
237.084275
 30
0.0
 10
168.014550
 20
236.765951
 30
0.0
  0
SPLINE
  5
11e
100
AcDbEntity
  8
Laag_1
 62
7
100
AcDbSpline
 70
8
 71
3
 72
8
 73
4
 74
0
 40
0
 40
0
 40
0
 40
0
 40
1
 40
1
 40
1
 40
1
 10
168.014550
 20
236.765951
 30
0.0
 10
168.014510
 20
236.103265
 30
0.0
 10
167.477306
 20
235.566063
 30
0.0
 10
166.814620
 20
235.566024
 30
0.0
  0
SPLINE
  5
11f
100
AcDbEntity
  8
Laag_1
 62
7
100
AcDbSpline
 70
8
 71
3
 72
8
 73
4
 74
0
 40
0
 40
0
 40
0
 40
0
 40
1
 40
1
 40
1
 40
1
 10
166.814620
 20
235.566024
 30
0.0
 10
166.151938
 20
235.566068
 30
0.0
 10
165.614740
 20
236.103269
 30
0.0
 10
165.614700
 20
236.765951
 30
0.0
  0
SPLINE
  5
120
100
AcDbEntity
  8
Laag_1
 62
7
100
AcDbSpline
 70
8
 71
3
 72
8
 73
4
 74
0
 40
0
 40
0
 40
0
 40
0
 40
1
 40
1
 40
1
 40
1
 10
165.614700
 20
236.765951
 30
0.0
 10
165.614582
 20
237.084274
 30
0.0
 10
165.740948
 20
237.389600
 30
0.0
 10
165.965987
 20
237.614737
 30
0.0
  0
SPLINE
  5
121
100
AcDbEntity
  8
Laag_1
 62
7
100
AcDbSpline
 70
8
 71
3
 72
8
 73
4
 74
0
 40
0
 40
0
 40
0
 40
0
 40
1
 40
1
 40
1
 40
1
 10
165.965987
 20
237.614737
 30
0.0
 10
166.191026
 20
237.839874
 30
0.0
 10
166.496297
 20
237.966373
 30
0.0
 10
166.814620
 20
237.966394
 30
0.0
  0
LWPOLYLINE
  5
122
100
AcDbEntity
  8
Laag_1
 62
7
100
AcDbPolyline
 90
1
 70
1
 10
8.400004
 20
237.966394
 30
0.0
  0
LWPOLYLINE
  5
123
100
AcDbEntity
  8
Laag_1
 62
7
100
AcDbPolyline
 90
1
 70
1
 10
166.814620
 20
237.966394
 30
0.0
  0
LWPOLYLINE
  5
124
100
AcDbEntity
  8
Laag_1
 62
7
100
AcDbPolyline
 90
5
 70
1
 10
52.070207
 20
227.208911
 30
0.0
 10
81.939185
 20
227.208911
 30
0.0
 10
81.939185
 20
225.168209
 30
0.0
 10
52.070207
 20
225.168209
 30
0.0
 10
52.070207
 20
227.208911
 30
0.0
  0
LWPOLYLINE
  5
125
100
AcDbEntity
  8
Laag_1
 62
7
100
AcDbPolyline
 90
5
 70
1
 10
52.070207
 20
222.015946
 30
0.0
 10
81.939185
 20
222.015946
 30
0.0
 10
81.939185
 20
219.975244
 30
0.0
 10
52.070207
 20
219.975244
 30
0.0
 10
52.070207
 20
222.015946
 30
0.0
  0
SPLINE
  5
126
100
AcDbEntity
  8
Laag_1
 62
7
100
AcDbSpline
 70
8
 71
3
 72
8
 73
4
 74
0
 40
0
 40
0
 40
0
 40
0
 40
1
 40
1
 40
1
 40
1
 10
8.400004
 20
206.435502
 30
0.0
 10
8.718328
 20
206.435483
 30
0.0
 10
9.023601
 20
206.308985
 30
0.0
 10
9.248642
 20
206.083848
 30
0.0
  0
SPLINE
  5
127
100
AcDbEntity
  8
Laag_1
 62
7
100
AcDbSpline
 70
8
 71
3
 72
8
 73
4
 74
0
 40
0
 40
0
 40
0
 40
0
 40
1
 40
1
 40
1
 40
1
 10
9.248642
 20
206.083848
 30
0.0
 10
9.473682
 20
205.858710
 30
0.0
 10
9.600048
 20
205.553383
 30
0.0
 10
9.599931
 20
205.235059
 30
0.0
  0
SPLINE
  5
128
100
AcDbEntity
  8
Laag_1
 62
7
100
AcDbSpline
 70
8
 71
3
 72
8
 73
4
 74
0
 40
0
 40
0
 40
0
 40
0
 40
1
 40
1
 40
1
 40
1
 10
9.599931
 20
205.235059
 30
0.0
 10
9.599890
 20
204.572374
 30
0.0
 10
9.062689
 20
204.035172
 30
0.0
 10
8.400004
 20
204.035132
 30
0.0
  0
SPLINE
  5
129
100
AcDbEntity
  8
Laag_1
 62
7
100
AcDbSpline
 70
8
 71
3
 72
8
 73
4
 74
0
 40
0
 40
0
 40
0
 40
0
 40
1
 40
1
 40
1
 40
1
 10
8.400004
 20
204.035132
 30
0.0
 10
7.737319
 20
204.035172
 30
0.0
 10
7.200118
 20
204.572374
 30
0.0
 10
7.200077
 20
205.235059
 30
0.0
  0
SPLINE
  5
12a
100
AcDbEntity
  8
Laag_1
 62
7
100
AcDbSpline
 70
8
 71
3
 72
8
 73
4
 74
0
 40
0
 40
0
 40
0
 40
0
 40
1
 40
1
 40
1
 40
1
 10
7.200077
 20
205.235059
 30
0.0
 10
7.199960
 20
205.553383
 30
0.0
 10
7.326326
 20
205.858710
 30
0.0
 10
7.551367
 20
206.083848
 30
0.0
  0
SPLINE
  5
12b
100
AcDbEntity
  8
Laag_1
 62
7
100
AcDbSpline
 70
8
 71
3
 72
8
 73
4
 74
0
 40
0
 40
0
 40
0
 40
0
 40
1
 40
1
 40
1
 40
1
 10
7.551367
 20
206.083848
 30
0.0
 10
7.776407
 20
206.308985
 30
0.0
 10
8.081680
 20
206.435483
 30
0.0
 10
8.400004
 20
206.435502
 30
0.0
  0
LWPOLYLINE
  5
12c
100
AcDbEntity
  8
Laag_1
 62
7
100
AcDbPolyline
 90
5
 70
1
 10
52.070207
 20
216.822982
 30
0.0
 10
81.939185
 20
216.822982
 30
0.0
 10
81.939185
 20
214.782796
 30
0.0
 10
52.070207
 20
214.782796
 30
0.0
 10
52.070207
 20
216.822982
 30
0.0
  0
SPLINE
  5
12d
100
AcDbEntity
  8
Laag_1
 62
7
100
AcDbSpline
 70
8
 71
3
 72
8
 73
4
 74
0
 40
0
 40
0
 40
0
 40
0
 40
1
 40
1
 40
1
 40
1
 10
166.814620
 20
206.435502
 30
0.0
 10
167.132944
 20
206.435483
 30
0.0
 10
167.438218
 20
206.308986
 30
0.0
 10
167.663260
 20
206.083849
 30
0.0
  0
SPLINE
  5
12e
100
AcDbEntity
  8
Laag_1
 62
7
100
AcDbSpline
 70
8
 71
3
 72
8
 73
4
 74
0
 40
0
 40
0
 40
0
 40
0
 40
1
 40
1
 40
1
 40
1
 10
167.663260
 20
206.083849
 30
0.0
 10
167.888301
 20
205.858711
 30
0.0
 10
168.014668
 20
205.553383
 30
0.0
 10
168.014550
 20
205.235059
 30
0.0
  0
SPLINE
  5
12f
100
AcDbEntity
  8
Laag_1
 62
7
100
AcDbSpline
 70
8
 71
3
 72
8
 73
4
 74
0
 40
0
 40
0
 40
0
 40
0
 40
1
 40
1
 40
1
 40
1
 10
168.014550
 20
205.235059
 30
0.0
 10
168.014510
 20
204.572373
 30
0.0
 10
167.477306
 20
204.035171
 30
0.0
 10
166.814620
 20
204.035132
 30
0.0
  0
SPLINE
  5
130
100
AcDbEntity
  8
Laag_1
 62
7
100
AcDbSpline
 70
8
 71
3
 72
8
 73
4
 74
0
 40
0
 40
0
 40
0
 40
0
 40
1
 40
1
 40
1
 40
1
 10
166.814620
 20
204.035132
 30
0.0
 10
166.151938
 20
204.035176
 30
0.0
 10
165.614740
 20
204.572377
 30
0.0
 10
165.614700
 20
205.235059
 30
0.0
  0
SPLINE
  5
131
100
AcDbEntity
  8
Laag_1
 62
7
100
AcDbSpline
 70
8
 71
3
 72
8
 73
4
 74
0
 40
0
 40
0
 40
0
 40
0
 40
1
 40
1
 40
1
 40
1
 10
165.614700
 20
205.235059
 30
0.0
 10
165.614582
 20
205.553382
 30
0.0
 10
165.740948
 20
205.858708
 30
0.0
 10
165.965987
 20
206.083845
 30
0.0
  0
SPLINE
  5
132
100
AcDbEntity
  8
Laag_1
 62
7
100
AcDbSpline
 70
8
 71
3
 72
8
 73
4
 74
0
 40
0
 40
0
 40
0
 40
0
 40
1
 40
1
 40
1
 40
1
 10
165.965987
 20
206.083845
 30
0.0
 10
166.191026
 20
206.308982
 30
0.0
 10
166.496297
 20
206.435481
 30
0.0
 10
166.814620
 20
206.435502
 30
0.0
  0
LWPOLYLINE
  5
133
100
AcDbEntity
  8
Laag_1
 62
7
100
AcDbPolyline
 90
1
 70
1
 10
8.400004
 20
206.435502
 30
0.0
  0
LWPOLYLINE
  5
134
100
AcDbEntity
  8
Laag_1
 62
7
100
AcDbPolyline
 90
1
 70
1
 10
166.814620
 20
206.435502
 30
0.0
  0
LWPOLYLINE
  5
135
100
AcDbEntity
  8
Laag_1
 62
7
100
AcDbPolyline
 90
4
 70
1
 10
5.471939
 20
194.900330
 30
0.0
 10
170.471439
 20
194.900330
 30
0.0
 10
170.471439
 20
158.900834
 30
0.0
 10
5.471939
 20
158.900834
 30
0.0
  0
LWPOLYLINE
  5
136
100
AcDbEntity
  8
Laag_1
 62
7
100
AcDbPolyline
 90
4
 70
1
 10
5.507049
 20
102.035450
 30
0.0
 10
5.507049
 20
65.982870
 30
0.0
 10
41.560146
 20
65.982870
 30
0.0
 10
41.560146
 20
102.035450
 30
0.0
  0
LWPOLYLINE
  5
137
100
AcDbEntity
  8
Laag_1
 62
7
100
AcDbPolyline
 90
4
 70
1
 10
16.335794
 20
80.002790
 30
0.0
 10
29.546273
 20
80.002790
 30
0.0
 10
29.478243
 20
68.950130
 30
0.0
 10
16.301781
 20
68.950130
 30
0.0
  0
SPLINE
  5
138
100
AcDbEntity
  8
Laag_1
 62
7
100
AcDbSpline
 70
8
 71
3
 72
8
 73
4
 74
0
 40
0
 40
0
 40
0
 40
0
 40
1
 40
1
 40
1
 40
1
 10
68.065803
 20
152.119760
 30
0.0
 10
68.065796
 20
150.370384
 30
0.0
 10
67.287296
 20
148.753895
 30
0.0
 10
66.023550
 20
147.879190
 30
0.0
  0
SPLINE
  5
139
100
AcDbEntity
  8
Laag_1
 62
7
100
AcDbSpline
 70
8
 71
3
 72
8
 73
4
 74
0
 40
0
 40
0
 40
0
 40
0
 40
1
 40
1
 40
1
 40
1
 10
66.023550
 20
147.879190
 30
0.0
 10
64.759795
 20
147.004525
 30
0.0
 10
63.202800
 20
147.004525
 30
0.0
 10
61.939045
 20
147.879190
 30
0.0
  0
SPLINE
  5
13a
100
AcDbEntity
  8
Laag_1
 62
7
100
AcDbSpline
 70
8
 71
3
 72
8
 73
4
 74
0
 40
0
 40
0
 40
0
 40
0
 40
1
 40
1
 40
1
 40
1
 10
61.939045
 20
147.879190
 30
0.0
 10
60.675299
 20
148.753895
 30
0.0
 10
59.896800
 20
150.370385
 30
0.0
 10
59.896793
 20
152.119760
 30
0.0
  0
LWPOLYLINE
  5
13b
100
AcDbEntity
  8
Laag_1
 62
7
100
AcDbPolyline
 90
5
 70
0
 10
5.442752
 20
152.119760
 30
0.0
 10
5.442752
 20
134.090880
 30
0.0
 10
170.471440
 20
134.090880
 30
0.0
 10
170.471440
 20
152.119760
 30
0.0
 10
68.065803
 20
152.119760
 30
0.0
  0
LWPOLYLINE
  5
13c
100
AcDbEntity
  8
Laag_1
 62
7
100
AcDbPolyline
 90
6
 70
0
 10
59.896793
 20
152.119760
 30
0.0
 10
43.923091
 20
152.119760
 30
0.0
 10
43.923091
 20
147.319010
 30
0.0
 10
32.932547
 20
147.319010
 30
0.0
 10
32.932547
 20
152.119760
 30
0.0
 10
5.442752
 20
152.119760
 30
0.0
  0
LWPOLYLINE
  5
13d
100
AcDbEntity
  8
Laag_1
 62
7
100
AcDbPolyline
 90
4
 70
1
 10
5.220168
 20
127.584000
 30
0.0
 10
170.249038
 20
127.584000
 30
0.0
 10
170.249038
 20
109.555130
 30
0.0
 10
5.220168
 20
109.555130
 30
0.0
  0
LWPOLYLINE
  5
13e
100
AcDbEntity
  8
Laag_1
 62
7
100
AcDbPolyline
 90
4
 70
1
 10
53.974331
 20
89.887790
 30
0.0
 10
90.041042
 20
89.887790
 30
0.0
 10
90.041042
 20
71.821077
 30
0.0
 10
53.974331
 20
71.821077
 30
0.0
  0
SPLINE
  5
13f
100
AcDbEntity
  8
Laag_1
 62
7
100
AcDbSpline
 70
8
 71
3
 72
8
 73
4
 74
0
 40
0
 40
0
 40
0
 40
0
 40
1
 40
1
 40
1
 40
1
 10
127.708470
 20
88.562590
 30
0.0
 10
127.708360
 20
87.617980
 30
0.0
 10
127.281900
 20
86.745160
 30
0.0
 10
126.589680
 20
86.272810
 30
0.0
  0
SPLINE
  5
140
100
AcDbEntity
  8
Laag_1
 62
7
100
AcDbSpline
 70
8
 71
3
 72
8
 73
4
 74
0
 40
0
 40
0
 40
0
 40
0
 40
1
 40
1
 40
1
 40
1
 10
126.589680
 20
86.272810
 30
0.0
 10
125.897230
 20
85.800260
 30
0.0
 10
125.044020
 20
85.800260
 30
0.0
 10
124.351570
 20
86.272810
 30
0.0
  0
SPLINE
  5
141
100
AcDbEntity
  8
Laag_1
 62
7
100
AcDbSpline
 70
8
 71
3
 72
8
 73
4
 74
0
 40
0
 40
0
 40
0
 40
0
 40
1
 40
1
 40
1
 40
1
 10
124.351570
 20
86.272810
 30
0.0
 10
123.659350
 20
86.745160
 30
0.0
 10
123.232890
 20
87.617980
 30
0.0
 10
123.232780
 20
88.562590
 30
0.0
  0
LWPOLYLINE
  5
142
100
AcDbEntity
  8
Laag_1
 62
7
100
AcDbPolyline
 90
6
 70
0
 10
100.099830
 20
89.710330
 30
0.0
 10
100.099830
 20
71.643730
 30
0.0
 10
136.166880
 20
71.643730
 30
0.0
 10
136.166880
 20
89.710330
 30
0.0
 10
127.719570
 20
89.710330
 30
0.0
 10
127.708470
 20
88.562590
 30
0.0
  0
SPLINE
  5
143
100
AcDbEntity
  8
Laag_1
 62
7
100
AcDbSpline
 70
8
 71
3
 72
8
 73
4
 74
0
 40
0
 40
0
 40
0
 40
0
 40
1
 40
1
 40
1
 40
1
 10
113.157400
 20
88.555880
 30
0.0
 10
113.157300
 20
87.611260
 30
0.0
 10
112.730830
 20
86.738440
 30
0.0
 10
112.038610
 20
86.266090
 30
0.0
  0
SPLINE
  5
144
100
AcDbEntity
  8
Laag_1
 62
7
100
AcDbSpline
 70
8
 71
3
 72
8
 73
4
 74
0
 40
0
 40
0
 40
0
 40
0
 40
1
 40
1
 40
1
 40
1
 10
112.038610
 20
86.266090
 30
0.0
 10
111.346160
 20
85.793540
 30
0.0
 10
110.492950
 20
85.793540
 30
0.0
 10
109.800500
 20
86.266090
 30
0.0
  0
SPLINE
  5
145
100
AcDbEntity
  8
Laag_1
 62
7
100
AcDbSpline
 70
8
 71
3
 72
8
 73
4
 74
0
 40
0
 40
0
 40
0
 40
0
 40
1
 40
1
 40
1
 40
1
 10
109.800500
 20
86.266090
 30
0.0
 10
109.108280
 20
86.738440
 30
0.0
 10
108.681810
 20
87.611260
 30
0.0
 10
108.681710
 20
88.555880
 30
0.0
  0
LWPOLYLINE
  5
146
100
AcDbEntity
  8
Laag_1
 62
7
100
AcDbPolyline
 90
4
 70
0
 10
123.232780
 20
88.562590
 30
0.0
 10
123.196580
 20
89.710330
 30
0.0
 10
113.178100
 20
89.710330
 30
0.0
 10
113.157400
 20
88.555880
 30
0.0
  0
LWPOLYLINE
  5
147
100
AcDbEntity
  8
Laag_1
 62
7
100
AcDbPolyline
 90
3
 70
0
 10
108.681710
 20
88.555880
 30
0.0
 10
108.645010
 20
89.710330
 30
0.0
 10
100.099830
 20
89.710330
 30
0.0
  0
ENDSEC
  0
SECTION
  2
OBJECTS
  0
DICTIONARY
  5
C
330
0
100
AcDbDictionary
  3
ACAD_GROUP
350
D
  3
ACAD_MLINESTYLE
350
17
  0
DICTIONARY
  5
D
330
C
100
AcDbDictionary
  0
DICTIONARY
  5
1A
330
C
100
AcDbDictionary
  0
DICTIONARY
  5
17
330
C
100
AcDbDictionary
  3
STANDARD
350
18
  0
DICTIONARY
  5
19
330
C
100
AcDbDictionary
  0
ENDSEC
  0
EOF
